# xmcd CD database file
#
# Track frame offsets:
#	150
#	11406
#	24108
#	40226
#	54512
#	69373
#	85713
#	95311
#	110437
#	129575
#	144524
#	160178
#	177202
#	190738
#
# Disc length: 2738 seconds
#
# Revision: 0
# Processed by: cddbd v1.5.2PL0 Copyright (c) Steve Scherf et al.
# Submitted via: CDex 1.51
#
DISCID=a50ab00e
DTITLE=Jakub SMOLIK - Rekni, ze je nebe
DYEAR=2007
DGENRE=Country
TTITLE0=Jakub SMOLIK - Leta jsem nehral na housle
TTITLE1=Jakub SMOLIK - Co vic si muzem prat
TTITLE2=Jakub SMOLIK - Ja Te divko davno znam
TTITLE3=Jakub SMOLIK - Sam s dalkou
TTITLE4=Jakub SMOLIK - Ty jsi muj zazrak
TTITLE5=Jakub SMOLIK - Nerikej, ze uz se loucis
TTITLE6=Jakub SMOLIK - Sanci mi zas dej
TTITLE7=Jakub SMOLIK - Ty a ja
TTITLE8=Jakub SMOLIK - Rekni, ze je nebe
TTITLE9=Jakub SMOLIK - Ja nic, ja muzikant
TTITLE10=Jakub SMOLIK - Cas zustane v nas
TTITLE11=Jakub SMOLIK - Snum slibit smis
TTITLE12=Jakub SMOLIK - Rana z rana
TTITLE13=Jakub SMOLIK - Snih se snasi na Blanik
EXTD=YEAR: 2007
EXTT0=
EXTT1=
EXTT2=
EXTT3=
EXTT4=
EXTT5=
EXTT6=
EXTT7=
EXTT8=
EXTT9=
EXTT10=
EXTT11=
EXTT12=
EXTT13=
PLAYORDER=
